# xmcd
#
# Track frame offsets:
# 150
# 17086
# 34584
# 65431
# 90307
# 120302
# 147970
# 172787
# 190021
# 213474
# 232331
# 249002
# 270191
# 298331
# 322519
#
# Disc length: 4692 seconds
#
#
# Revision: 0
# Processed by: cddbd v1.5.1PL0 Copyright (c) Steve Scherf et al.
# Submitted via: FreeRIP 2.931 
#
DISCID=be12520f
DTITLE=Bobby Womack - So Many Sides (An introduction to)
DYEAR=2003
DGENRE=
TTITLE0=So many sides of you
TTITLE1=Secrets
TTITLE2=Games
TTITLE3=If you think you`re lonely now
TTITLE4=Where do we go from here
TTITLE5=Tell me why
TTITLE6=Love has finally come at last (with Patti Labelle)
TTITLE7=It takes a lot of strength to say goodbye
TTITLE8=Through the eyes of a child
TTITLE9=Tryin`to get over you
TTITLE10=I wish i had someone tocome home to
TTITLE11=American dream
TTITLE12=Someday we`ll all be free
TTITLE13=Falling in love again
TTITLE14=Save the children
EXTD=
EXTT0=
EXTT1=
EXTT2=
EXTT3=
EXTT4=
EXTT5=
EXTT6=
EXTT7=
EXTT8=
EXTT9=
EXTT10=
EXTT11=
EXTT12=
EXTT13=
EXTT14=
PLAYORDER=
